<?xml version="1.0" encoding="utf-8"?>
<svg xmlns="http://www.w3.org/2000/svg" width="195.514" height="32.608" viewBox="0 0 195.514 32.608">
  <g id="Poczta_Polska" data-name="Poczta Polska" transform="translate(-23.899 -12.268)">
    <g id="Group_337" data-name="Group 337" transform="translate(23.899 12.268)">
      <path id="Path_93" data-name="Path 93" d="M202.638,80.261a17.223,17.223,0,0,1,5.526-1.621c.7.035,1.6.3,1.656,1.126.083,2.025-1.189,3.762-2.156,5.437a19.17,19.17,0,0,0-3.086,8.527,11.2,11.2,0,0,0,2.476,8.651,9.62,9.62,0,0,0,7.475,2.832,19.612,19.612,0,0,0,8.956-2.605,30,30,0,0,0,10.094-9.978c.306-.506.951-1,1.55-.678.6.278.45,1.044.382,1.572a36.713,36.713,0,0,1-12.154,14.272,20.115,20.115,0,0,1-11.363,3.45,21.214,21.214,0,0,1-9.175-1.91c-2.52-1.087-4.821-2.606-7.265-3.845a24.865,24.865,0,0,0-13.826-3.352,16.117,16.117,0,0,1-3.614.172c-.7-.1-1.529-.438-1.578-1.251a5.074,5.074,0,0,1,1.271-2.837,42.507,42.507,0,0,1,5.036-5.159,3.852,3.852,0,0,0,3.614,5.944,8.758,8.758,0,0,0,2.4-.125,22.046,22.046,0,0,0,9.928-4.8,14.129,14.129,0,0,0,4.644-6.463,3.638,3.638,0,0,0-.959-3.833,5.9,5.9,0,0,0-4.614-1.019A36.245,36.245,0,0,1,202.638,80.261Z" transform="translate(-176.536 -78.64)" fill="#c43c2b"/>
      <path id="Path_98" data-name="Path 98" d="M301.109,165.638c1.088-.278,2.88.021,2.805,1.474-.313,2.1-2.213,3.509-3.959,4.448a6,6,0,0,1-3.73.723,1.44,1.44,0,0,1-1.208-1.321,3.949,3.949,0,0,1,1.159-2.486A9.21,9.21,0,0,1,301.109,165.638Z" transform="translate(-284.602 -157.805)" fill="#c43c2b"/>
      <path id="Path_100" data-name="Path 100" d="M543.789,177.865a4.808,4.808,0,0,1,4.615,1.529,4.276,4.276,0,0,1,.673,3.347,7.58,7.58,0,0,1-7.554,5.627,4.375,4.375,0,0,1-3.4-1.668,4.5,4.5,0,0,1-.26-4.391,7.725,7.725,0,0,1,5.922-4.444Z" transform="translate(-502.545 -170.048)" fill="#c43c2b"/>
    </g>
    <g id="Group_338" data-name="Group 338" transform="translate(88.529 19.427)">
      <path id="Path_94" data-name="Path 94" d="M1861.242,143.233c.5.014,1.315-.207,1.568.342.022,5.733,0,11.47.01,17.205.021.535-.684.463-1.044.487-.371-.028-1.112.065-1.074-.489V143.656C1860.662,143.339,1861,143.251,1861.242,143.233Z" transform="translate(-1764.713 -143.201)" fill="#c43c2b"/>
      <path id="Path_95" data-name="Path 95" d="M2013.9,143.735c-.029-.457.549-.417.861-.445.4.028.955-.092,1.23.278.042,3.543,0,7.09.019,10.636,1.456-1.579,2.889-3.179,4.333-4.769.556-.687,1.543-.525,2.309-.43.491.1.231.7-.022.911q-2.117,2.146-4.254,4.273c1.6,2.11,3.238,4.2,4.832,6.313.264.254.251.771-.195.791-.733.032-1.752.27-2.208-.485-1.6-2.1-3.185-4.212-4.8-6.3v6.349c.032.544-.688.464-1.049.488-.348-.036-.994.075-1.057-.4Q2013.9,152.34,2013.9,143.735Z" transform="translate(-1903.325 -143.283)" fill="#c43c2b"/>
      <path id="Path_96" data-name="Path 96" d="M852.585,157.3a.889.889,0,0,1,1.079-.834,30.158,30.158,0,0,1,5.522.235,4.526,4.526,0,0,1,3.279,2.736,5.456,5.456,0,0,1-1.946,6.433c-1.7,1.1-3.8.962-5.731.959-.012,2.028.019,4.059-.015,6.087-.232.442-.88.295-1.3.332-.331-.026-.94,0-.89-.493,0-5.152-.011-10.3,0-15.457m2.2,1v6.718c1.529-.071,3.29.278,4.565-.79a3.663,3.663,0,0,0,.246-5.067c-1.294-1.209-3.2-.774-4.81-.861Z" transform="translate(-852.578 -155.187)" fill="#c43c2b"/>
      <path id="Path_97" data-name="Path 97" d="M1600.136,157.367a.88.88,0,0,1,1.023-.9,24.532,24.532,0,0,1,5.987.345,4.448,4.448,0,0,1,3.007,3.007,5.6,5.6,0,0,1-1.412,5.544c-1.724,1.6-4.218,1.494-6.4,1.471v5.838c0,.19-.01.432-.238.475a3.4,3.4,0,0,1-1.718,0c-.278-.047-.26-.361-.254-.576.009-5.07,0-10.139.007-15.209m2.2.931v6.71a8.889,8.889,0,0,0,4.133-.474c2.167-1.2,2.138-5.111-.3-5.978a13.994,13.994,0,0,0-3.83-.252Z" transform="translate(-1528.95 -155.196)" fill="#c43c2b"/>
      <path id="Path_99" data-name="Path 99" d="M1319.927,170.026c.21-.357.713-.253,1.065-.286.335.029.865-.05,1.007.345.04.944,0,1.891.017,2.834,1.055,0,2.11-.01,3.165,0a1.55,1.55,0,0,1-.022,1.711c-1.041.093-2.1.012-3.144.04.008,2.224-.008,4.436.008,6.654a2.71,2.71,0,0,0,.626,1.982,2.2,2.2,0,0,0,2.143.025c.181-.089.52-.182.556.117.106.584.2,1.511-.53,1.71a4.394,4.394,0,0,1-3.753-.36,3.786,3.786,0,0,1-1.147-3.081c-.018-2.349,0-4.7-.011-7.049a12.48,12.48,0,0,1-1.827-.061,1.515,1.515,0,0,1,.012-1.647,12.754,12.754,0,0,1,1.816-.046C1319.924,171.956,1319.869,170.988,1319.927,170.026Z" transform="translate(-1273.537 -167.204)" fill="#c43c2b"/>
      <path id="Path_101" data-name="Path 101" d="M1113.98,200.561a5.185,5.185,0,0,1,3.326,1.063,1.744,1.744,0,0,1,.355,1.845c-.221.492-.724.06-.987-.156a3.688,3.688,0,0,0-4.309-.473,4.78,4.78,0,0,0-1.478,3.883,5.838,5.838,0,0,0,.933,3.753,3.21,3.21,0,0,0,3.9.606c.619-.263,1.083-.783,1.684-1.068.377-.053.363.464.391.719a1.476,1.476,0,0,1-.545,1.508,5.7,5.7,0,0,1-6.86-.139,6.617,6.617,0,0,1-1.716-4.808,7.58,7.58,0,0,1,1.412-5.016A5,5,0,0,1,1113.98,200.561Z" transform="translate(-1084.296 -195.078)" fill="#c43c2b"/>
      <path id="Path_102" data-name="Path 102" d="M1721.8,200.477a6.109,6.109,0,0,1,4.588,1.186,6.2,6.2,0,0,1,1.838,4.567,7.466,7.466,0,0,1-1.378,5.025,5.389,5.389,0,0,1-3.791,1.913,6.091,6.091,0,0,1-4.554-1.2,5.936,5.936,0,0,1-1.8-4.108,8.047,8.047,0,0,1,1.112-5.191,5.27,5.27,0,0,1,3.978-2.194m.077,1.771c-2.059.19-3.029,2.42-2.987,4.266a6.76,6.76,0,0,0,.647,3.37,3.475,3.475,0,0,0,5.815-.043,7,7,0,0,0,.581-4.17,4.049,4.049,0,0,0-1.315-2.8,3.631,3.631,0,0,0-2.737-.626Z" transform="translate(-1634.403 -194.968)" fill="#c43c2b"/>
      <path id="Path_103" data-name="Path 103" d="M1909.029,200.528a5.222,5.222,0,0,1,3.556.8,1.873,1.873,0,0,1,.12,1.522c-.139.309-.477.089-.673-.024a4.076,4.076,0,0,0-3.677-.417,1.567,1.567,0,0,0-.278,2.587c1.377,1.08,3.328,1.187,4.568,2.481a3.44,3.44,0,0,1-1.1,5.195,6.61,6.61,0,0,1-5.745-.128c-.724-.32-.669-1.275-.495-1.916.168-.348.574-.05.8.075a4.6,4.6,0,0,0,4.282.545,1.639,1.639,0,0,0,.4-2.659c-1.251-1.04-3.026-1.14-4.244-2.239a3.278,3.278,0,0,1-.249-4.573,4.229,4.229,0,0,1,2.734-1.253Z" transform="translate(-1804.967 -195.024)" fill="#c43c2b"/>
      <path id="Path_104" data-name="Path 104" d="M2128.191,201.517a7.877,7.877,0,0,1,5.093-.973,3.809,3.809,0,0,1,2.565,1.326,5.116,5.116,0,0,1,.781,3.143c-.011,2.577.019,5.156-.014,7.732-.228.457-.9.288-1.324.293-.79-.032-.379-1.031-.476-1.529a5.057,5.057,0,0,1-4.993,1.578,3.292,3.292,0,0,1-2.684-3.026,3.371,3.371,0,0,1,1.839-3.446,11.9,11.9,0,0,1,5.547-.777,5.679,5.679,0,0,0-.332-2.583,2.215,2.215,0,0,0-1.957-1.048,6.117,6.117,0,0,0-3.615.973c-.233.114-.6.354-.786.047a1.317,1.317,0,0,1,.361-1.707m2.052,6.357a2.039,2.039,0,0,0-.468,3.058,2.587,2.587,0,0,0,2.585.5,5.018,5.018,0,0,0,2.14-1.586c.073-.824,0-1.66.032-2.487a9.413,9.413,0,0,0-4.295.509Z" transform="translate(-2005.761 -194.992)" fill="#c43c2b"/>
      <path id="Path_105" data-name="Path 105" d="M973.644,200.5a6.435,6.435,0,0,1,5,1.018,5.808,5.808,0,0,1,1.93,4.162,7.968,7.968,0,0,1-1.157,5.282,5.313,5.313,0,0,1-3.849,2.146,6.069,6.069,0,0,1-4.8-1.293,6.361,6.361,0,0,1-1.71-4.482,7.081,7.081,0,0,1,1.836-5.509,5.362,5.362,0,0,1,2.759-1.328m.567,1.71a3.075,3.075,0,0,0-2.373,1.715,7.493,7.493,0,0,0-.417,4.544,3.353,3.353,0,0,0,2,2.679,3.614,3.614,0,0,0,4.094-1.038,6.522,6.522,0,0,0,.786-4.521,4,4,0,0,0-1.329-2.78,3.658,3.658,0,0,0-2.765-.589Z" transform="translate(-957.955 -194.928)" fill="#c43c2b"/>
      <path id="Path_106" data-name="Path 106" d="M1411.745,202.362a7.455,7.455,0,0,1,4.922-1.189,3.863,3.863,0,0,1,3.133,1.636,5.944,5.944,0,0,1,.606,3.1c-.014,2.5.022,5.016-.018,7.521-.261.453-.938.289-1.379.278-.72-.1-.329-1.026-.424-1.517a5.014,5.014,0,0,1-6.173,1.086,3.559,3.559,0,0,1-1.192-4.466,3.8,3.8,0,0,1,2.335-1.864,14.944,14.944,0,0,1,4.742-.435,5.386,5.386,0,0,0-.352-2.612,2.293,2.293,0,0,0-2.085-1.031,6.615,6.615,0,0,0-3.668,1.083c-.884.431-.932-1.19-.443-1.59m2.2,6.228a2,2,0,0,0,.25,3.475,3.614,3.614,0,0,0,4.083-1.589c.039-.808,0-1.618.014-2.427a9.018,9.018,0,0,0-4.349.548Z" transform="translate(-1357.735 -195.606)" fill="#c43c2b"/>
      <path id="Path_107" data-name="Path 107" d="M1223.013,202.955c2.177-.063,4.361,0,6.542-.028.292,0,.7-.013.8.332a2.6,2.6,0,0,1-.293,2c-1.721,2.726-3.468,5.435-5.188,8.163h5.155c1.036-.227,1.037,2.024,0,1.792h-6.766a.6.6,0,0,1-.654-.432,2.592,2.592,0,0,1,.3-1.875c1.735-2.733,3.493-5.451,5.229-8.184-1.7-.028-3.4.044-5.1-.035A1.333,1.333,0,0,1,1223.013,202.955Z" transform="translate(-1187.334 -197.216)" fill="#c43c2b"/>
    </g>
  </g>
</svg>
